<svg preserveAspectRatio="none" width="100%" height="100%" overflow="visible" style="display: block;" viewBox="0 0 14 10" fill="none" xmlns="http://www.w3.org/2000/svg">
<path id="Vector" d="M7.00001 1C6.206 1.006 5.42099 1.16835 4.68976 1.47777C3.95852 1.78719 3.2954 2.23763 2.73825 2.80337C2.1811 3.36909 1.74085 4.03904 1.44263 4.77493C1.14441 5.51083 0.994063 6.29824 1.00018 7.09227V8.2C1.00018 8.41216 1.08446 8.61568 1.23449 8.76571C1.38451 8.91573 1.58799 9 1.80015 9H12.1999C12.412 9 12.6155 8.91573 12.7655 8.76571C12.9156 8.61568 12.9998 8.41216 12.9998 8.2V7.09067C13.0118 5.48736 12.3864 3.94501 11.2612 2.8028C10.136 1.6606 8.60327 1.01212 7.00001 1Z" stroke="var(--stroke-0, #090A0B)" stroke-width="2" stroke-linecap="round" stroke-linejoin="round"/>
</svg>
