<svg preserveAspectRatio="none" width="100%" height="100%" overflow="visible" style="display: block;" viewBox="0 0 18 18" fill="none" xmlns="http://www.w3.org/2000/svg">
<path id="Union" fill-rule="evenodd" clip-rule="evenodd" d="M9 2C5.13401 2 2 5.13401 2 9C2 12.866 5.13401 16 9 16C12.866 16 16 12.866 16 9C16 5.13401 12.866 2 9 2ZM0 9C0 4.02944 4.02944 0 9 0C13.9706 0 18 4.02944 18 9C18 13.9706 13.9706 18 9 18C4.02944 18 0 13.9706 0 9ZM9.12538 6.01518C8.87162 5.97292 8.61217 6.0198 8.39438 6.14407C8.17718 6.26802 8.01899 6.45847 7.9402 6.67596C7.75207 7.19521 7.17862 7.46364 6.65936 7.27552C6.14011 7.08739 5.87168 6.51394 6.0598 5.99468C6.30362 5.32173 6.7822 4.76132 7.40315 4.40699C8.02352 4.05299 8.7495 3.92504 9.45394 4.04236C10.1586 4.15971 10.8037 4.5163 11.2719 5.0564C11.7407 5.59706 12.001 6.28625 12 7.00252C11.9995 8.21294 11.0812 8.97287 10.5142 9.33985C10.1966 9.54547 9.88626 9.6954 9.6595 9.79325C9.54468 9.8428 9.44765 9.88055 9.37704 9.90667C9.34165 9.91976 9.31266 9.93002 9.29112 9.93745L9.26446 9.94652L9.25551 9.94948L9.25217 9.95058L9.25079 9.95103L9.25017 9.95123C9.24988 9.95132 9.2496 9.95141 8.94168 9L9.2496 9.95141C8.72415 10.1215 8.16033 9.83337 7.99027 9.30792C7.82053 8.78347 8.10721 8.22079 8.63077 8.04956L9.12538 6.01518ZM9.12538 6.01518C9.37892 6.05741 9.60295 6.18451 9.76078 6.36654C9.91801 6.54789 10.0003 6.77248 10 6.99996L10 7.00149C10 7.12281 9.8895 7.36181 9.42745 7.66089C9.23052 7.78837 9.02625 7.88825 8.86708 7.95693C8.78894 7.99065 8.72517 8.01536 8.68321 8.03088C8.66232 8.0386 8.64708 8.04396 8.63847 8.04694L8.63084 8.04954L9.12538 6.01518ZM12 7.00252V7.00149H11.0001L12 7.00303L12 7.00252ZM9 11C8.44771 11 8 11.4477 8 12C8 12.5523 8.44771 13 9 13H9.01C9.56229 13 10.01 12.5523 10.01 12C10.01 11.4477 9.56229 11 9.01 11H9Z" fill="var(--fill-0, #090A0B)"/>
</svg>
