<?xml version="1.0" encoding="UTF-8" standalone="no"?>
<!DOCTYPE svg PUBLIC "-//W3C//DTD SVG 1.1//EN" "http://www.w3.org/Graphics/SVG/1.1/DTD/svg11.dtd">
<svg width="100%" height="100%" viewBox="0 0 1000 1000" version="1.1" xmlns="http://www.w3.org/2000/svg" xmlns:xlink="http://www.w3.org/1999/xlink" xml:space="preserve" xmlns:serif="http://www.serif.com/" style="fill-rule:evenodd;clip-rule:evenodd;stroke-linejoin:round;stroke-miterlimit:2;">
    <g id="Gemini_Generated_Image_ddo8pfddo8pfddo8.png">
        <path d="M1.5,0L999.999,0C1001.047,2.726 999.999,2.844 999.999,36.5L999.999,999.999C997.851,1001.156 997.661,999.999 969.5,999.999L0,999.999C-1.027,998.092 0,995.666 0,993.5L0,0C0.197,-0.46 1.303,0.46 1.5,0Z" style="fill:rgb(40,40,40);"/>
        <path d="M469.621,462.359C477.945,469.133 553.475,530.606 572.863,548.022C574.19,549.214 575.348,548.568 575.371,547.479C575.48,542.294 574.704,438.751 575.744,437.767C576.369,437.176 604.959,436.094 605.833,438.343C605.937,438.613 606.098,438.519 606.124,499.499C606.159,581.487 605.808,581.451 605.153,583.392C600.465,597.281 586.454,597.338 577.86,591.003C576.948,590.331 451.563,485.254 451.159,484.919C450.299,484.208 445.494,479.518 445.316,482.453C445.264,483.315 445.429,579.096 445.443,587.5C445.444,587.955 445.452,592.713 444.369,593.077C443.782,593.274 416.084,593.29 415.623,593.074C413.324,591.994 414.513,591.068 414.326,517.5C414.15,448.499 414.775,448.459 415.962,445.723C418.834,439.107 430.467,430.269 445.094,441.991C447.084,443.586 446.837,443.826 469.621,462.359Z" style="fill:rgb(253,253,252);"/>
        <path d="M102.595,388.938C91.804,393.059 91.408,392.181 86.489,395.718C82.812,394.661 85.309,393.54 85.499,393.499C90.204,392.488 89.454,390.617 141.588,371.771C445.74,261.821 664.328,329.304 680.48,325.409C689.603,323.208 689.099,320.918 702.861,278.615C708.082,262.567 711.875,245.982 710.542,259.493C710.139,263.571 708.649,263.191 699.259,309.451C696.599,322.557 692.973,329.042 713.424,333.852C798.95,353.97 851.119,375.96 888.705,391.103C888.967,391.209 904.961,399.637 890.653,394.051C815.669,364.778 704.214,345.876 698.503,346.537C686.345,347.944 687.144,355.851 676.22,389.408C673.09,399.026 664.67,429.868 666.375,415.517C666.859,411.446 667.351,411.569 677.859,365.579C681.072,351.513 685.256,343.548 668.45,340.95C435.914,305.004 214.997,350.073 102.595,388.938Z" style="fill:rgb(121,169,53);"/>
        <path d="M124.855,450.502C124.849,459.539 124.781,562.474 124.846,563.471C125.025,566.243 126.682,565.4 187.5,565.513C247.854,565.626 249.644,564.699 249.724,567.475C249.782,569.469 250.405,590.975 249.377,592.413C248.21,594.048 247.602,593.096 121.501,593.21C93.754,593.235 92.868,593.412 92.49,591.502C92.407,591.082 92.32,440.128 92.492,439.498C93.126,437.178 94.15,437.551 122.523,438.117C125.868,438.183 124.858,444.48 124.855,450.502Z" style="fill:rgb(253,253,252);"/>
        <path d="M717.096,511.432C717.324,510.642 718.72,505.808 722.775,502.863C727.412,499.497 822.353,438.87 822.604,438.731C824.915,437.456 862.237,438.648 870.698,438.008C876.68,437.556 865.998,442.629 860.78,445.95C805.755,480.972 753.753,512.018 753.578,513.515C753.432,514.769 754.121,514.725 842.798,571.036C870.801,588.819 880.655,593.812 874.5,593.498C855.409,592.525 831.078,594.073 827.447,592.621C825.271,591.75 786.713,566.29 783.194,563.966C720.282,522.423 715.979,522.989 717.096,511.432Z" style="fill:rgb(252,252,252);"/>
        <path d="M311.863,587.505C311.837,538.837 311.811,490.169 311.784,441.501C311.781,437.424 313.398,438.169 317.501,438.158C342.888,438.088 344.185,438.004 344.189,440.508C344.163,470.505 344.138,500.502 344.113,530.498C344.082,591.718 344.611,592.981 342.455,593.192C342.322,593.205 313.729,593.199 313.539,593.183C311.335,593.002 312.312,591.976 311.863,587.505Z" style="fill:rgb(252,252,251);"/>
        <path d="M707.111,579.497C707.118,586.281 708.318,593.223 704.497,593.224C676.196,593.232 675.522,593.288 675.055,591.639C674.835,590.863 674.803,439.896 674.916,439.598C675.45,438.191 677.248,438.173 677.482,438.171C705.187,437.901 706.177,437.087 706.915,439.325C706.978,439.515 707.15,439.514 707.125,497.502C707.12,524.834 707.116,552.166 707.111,579.497Z" style="fill:rgb(251,251,251);"/>
        <path d="M453.597,633.923C452.014,634.48 435.599,637.702 438.242,658.536C440.343,675.103 457.33,675.39 459.502,675.427C483.842,675.838 484.604,675.605 484.979,673.596C485.018,673.388 485.462,660.871 484.657,659.377C483.65,657.508 457.047,660.188 456.054,657.748C455.846,657.237 454.15,649.34 458.491,649.303C461.534,649.277 494.407,649.264 494.532,649.282C496.87,649.605 496.358,650.818 496.467,683.5C496.478,686.915 494.641,686.162 473.499,686.16C463.322,686.159 433.723,690.349 426.819,660.433C424.069,648.517 429.972,623.331 457.504,622.75C460.205,622.693 489.514,622.073 491.278,622.997C492.452,623.613 493.298,633.14 490.463,633.276C479.383,633.809 466.13,632.568 453.597,633.923Z" style="fill:rgb(249,250,248);"/>
        <path d="M551.644,663.502C551.768,660.244 550.217,658.729 553.492,658.443C554.113,658.388 573.615,658.596 578.491,658.357C593.218,657.632 592.697,640.954 586.224,635.87C580.134,631.086 544.005,633.923 543.95,633.973C542.83,634.994 543.735,677.372 543.491,684.499C543.405,687.021 532.621,687.335 531.943,684.449C531.912,684.316 531.803,658.47 531.904,631.505C531.926,625.658 529.591,622.799 535.502,622.727C575.768,622.231 579.733,622.735 583.546,623.221C597.711,625.023 603.26,638.527 601.758,648.531C599.695,662.269 593.388,663.06 589.697,665.715C587.078,667.6 606.431,683.531 606.381,685.482C606.354,686.513 605.844,686.467 593.512,686.183C591.356,686.134 590.187,684.719 577.077,669.873C573.93,666.31 563.287,668.334 553.438,667.874C550.576,667.741 551.9,666.398 551.644,663.502Z" style="fill:rgb(250,250,248);"/>
        <path d="M809.125,665.537C806.812,657.061 803.803,658.679 772.5,658.559C746.829,658.46 746.837,633.915 758.78,625.956C762.495,623.48 764.625,622.061 814.49,622.701C817.883,622.745 818.079,633.239 814.488,633.292C778.836,633.819 765.275,631.074 763.365,638.46C759.383,653.859 782.949,648.034 801.529,649.206C826.172,650.76 826.396,679.21 807.401,685.175C801.622,686.99 753.37,685.957 753.268,685.913C752.001,685.37 752.272,678.153 752.297,677.474C752.405,674.59 759.601,675.483 767.5,675.49C804.037,675.52 809.065,676.735 809.125,665.537Z" style="fill:rgb(250,250,248);"/>
        <path d="M149.494,622.257C151.365,622.42 151.356,622.397 151.514,622.433C156.08,623.481 197.569,667.485 198.47,667.613C201.885,668.096 197.894,665.237 199.585,624.512C199.687,622.067 208.361,622.544 209.344,622.908C210.42,623.306 210.387,629.885 210.384,630.498C210.131,680.123 212.56,688.224 203.476,686.633C198.357,685.736 157.061,641.403 155.577,641.163C152.531,640.671 154.341,642.672 154.343,647.501C154.352,667.34 154.514,684.645 154.091,685.305C153.427,686.341 146.202,686.278 145.512,686.272C142.234,686.244 143.339,678.173 143.361,674.498C143.642,627.24 141.449,623.567 149.494,622.257Z" style="fill:rgb(251,251,249);"/>
        <path d="M636.559,682.535C640.581,676.212 657.115,648.684 658.888,645.732C672.786,622.592 673.406,621.117 678.562,622.258C684.444,623.56 703.426,660.931 717.961,683.244C720.786,687.58 714.426,686.283 708.503,686.267C704.083,686.255 701.166,676.403 697.358,671.608C695.969,669.859 695.688,669.506 669.489,669.932C666.764,669.976 665.193,669.879 666.588,667.543C669.923,661.958 670.004,661.03 676.501,661.021C688.518,661.003 691.541,661.548 689.655,658.422C677.888,638.92 678.063,638.042 676.46,638.4C675.241,638.672 649.162,685.068 647.294,686.016C646.69,686.323 635.963,686.377 635.643,686.199C633.916,685.233 635.326,684.825 636.559,682.535Z" style="fill:rgb(250,250,248);"/>
        <path d="M354.5,633.376C349.074,633.487 348.248,632.216 347.426,634.465C346.68,636.508 347.235,669.462 347.286,672.505C347.343,675.91 349.032,675.496 369.5,675.45C391.204,675.401 393.548,674.741 393.626,677.489C393.646,678.182 393.861,685.669 392.374,686.063C391.825,686.209 336.896,686.193 336.616,686.113C335.219,685.717 335.472,685.009 335.47,629.5C335.47,627.635 334.136,622.741 338.502,622.726C342.739,622.711 386.685,622.563 391.471,622.734C393.929,622.822 393.746,631.742 392.76,632.756C392.162,633.371 392.004,633.381 354.5,633.376Z" style="fill:rgb(250,250,249);"/>
        <path d="M302.934,629.502C302.709,631.941 303.916,633.135 301.452,633.25C289.143,633.821 278.647,631.74 278.337,635.487C277.842,641.46 279.542,685.252 277.34,686.095C276.644,686.361 267.297,686.977 267.083,684.612C266.458,677.718 267.661,634.894 266.294,633.805C264.68,632.519 243.788,634.571 242.756,632.37C242.331,631.464 241.613,622.834 244.521,622.771C249.165,622.671 300.919,621.548 302.583,623.443C302.903,623.808 302.607,623.864 302.934,629.502Z" style="fill:rgb(249,249,249);"/>
        <path d="M864.503,622.732C864.652,622.744 866.368,622.88 866.368,622.88C867.199,623.184 867.561,623.498 867.499,659.5C867.457,684.092 868.34,686.148 864.495,686.174C858.7,686.212 855.857,688.272 856.04,682.501C856.242,676.117 855.525,624.572 856.509,623.507C857.941,621.957 858.31,622.829 864.503,622.732Z" style="fill:rgb(251,251,251);"/>
        <path d="M100.502,622.783C105.07,622.886 105.168,622.631 105.739,623.188C105.824,623.271 106.369,623.801 106.402,624.515C106.497,626.575 106.466,682.869 106.402,684.483C106.299,687.065 95.74,687.2 95.212,684.565C94.658,681.803 95.105,631.143 95.147,626.498C95.19,621.629 97.637,622.857 100.502,622.783Z" style="fill:rgb(252,252,252);"/>
        <path d="M892.793,457.452C892.044,437.725 912.271,436.088 919.469,446.521C932.441,465.325 898.54,482.429 892.793,457.452Z" style="fill:rgb(227,227,226);"/>
        <path d="M895.189,455.513C898.175,435.51 914.644,443.939 917.131,447.75C928.526,465.211 897.566,477.8 895.189,455.513Z" style="fill:rgb(39,40,39);"/>
        <path d="M137.19,723.514C138.372,707.137 154.925,709.998 159.005,715.913C169.743,731.476 140.247,743.972 137.19,723.514Z" style="fill:rgb(240,241,238);"/>
        <path d="M303.918,718.504C303.929,717.967 304.051,712.289 304.731,711.83C305.58,711.256 311.878,711.48 312.5,711.502C331.97,712.193 328.736,738.206 305.386,733.933C303.264,733.545 303.924,726.358 303.918,718.504Z" style="fill:rgb(238,238,234);"/>
        <path d="M391.078,653.498C391.05,653.925 390.743,658.556 389.522,658.617C378.38,659.171 360.055,658.701 357.494,658.636C353.786,658.541 354.026,649.326 357.478,649.244C360.111,649.183 389.031,648.503 390.395,649.629C391.279,650.359 390.874,650.527 391.078,653.498Z" style="fill:rgb(250,250,248);"/>
        <path d="M230.72,728.5C230.714,728.933 230.647,733.531 229.626,733.807C226.308,734.705 227.19,727.135 227.182,718.506C227.179,715.023 224.936,711.503 232.5,711.484C233.648,711.482 244.177,711.455 246.238,715.638C249.297,721.852 240.795,724.698 241.802,726.366C242.23,727.074 249.536,734.993 244.584,734.018C240.535,733.221 241.103,724.846 232.498,725.48C230.316,725.641 230.735,728.262 230.72,728.5Z" style="fill:rgb(241,241,240);"/>
        <path d="M863.605,712.228C864.346,712.655 871.76,716.933 866.511,722.511C865.557,723.525 862.054,724.487 863.392,726.562C866.563,731.48 870.881,735.921 865.406,733.81C863.229,732.971 860.321,724.073 853.529,725.588C851.059,726.139 853.823,735.7 849.334,733.754C848.321,733.314 847.887,712.608 849.628,711.781C853.17,710.099 862.509,712.004 863.605,712.228Z" style="fill:rgb(234,235,230);"/>
        <path d="M699.427,723.393C694.782,726.207 697.767,727.453 701.185,731.723C702.764,733.695 700.127,735.432 697.564,732.447C695.519,730.064 693.572,724.28 687.478,725.418C684.588,725.957 687.57,735.209 683.369,733.799C681.91,733.31 681.729,712.523 683.602,711.752C684.141,711.53 695.206,710.788 698.363,712.736C705.198,716.954 699.999,722.755 699.427,723.393Z" style="fill:rgb(238,239,234);"/>
        <path d="M609.519,725.926C609.087,725.951 604.419,726.227 604.326,727.462C603.946,732.5 605.356,734.08 602.511,734.007C600.43,733.953 600.784,728.959 600.833,718.5C600.851,714.724 598.807,711.483 606.5,711.458C607.763,711.454 623.038,711.406 618.632,721.565C617.992,723.041 616.571,724.092 616.343,724.261C614.04,725.965 613.824,725.304 609.519,725.926Z" style="fill:rgb(232,233,229);"/>
        <path d="M140.857,722.504C143.077,708.739 154.957,715.185 156.585,718.459C162.294,729.941 142.827,738.762 140.857,722.504Z" style="fill:rgb(41,43,40);"/>
        <path d="M640.197,726.357C644.346,717.332 647.116,708.898 650.519,712.484C653.328,715.443 659.604,730.883 660.276,732.535C660.465,732.999 658.356,736.132 655.975,731.286C654.003,727.272 651.494,728.074 644.476,728.179C641.217,728.228 642.272,729.688 640.693,732.632C640.01,733.906 635.623,735.582 637.99,730.733C638.706,729.265 639.48,727.825 640.197,726.357Z" style="fill:rgb(234,235,231);"/>
        <path d="M486.832,730.638C484.044,736.44 482.402,732.871 482.452,732.494C482.466,732.393 491.022,713.741 491.758,712.689C494.838,708.287 498.109,717.405 503.061,727.712C503.276,728.16 505.745,733.301 504.639,733.716C501.596,734.86 500.625,728.393 498.548,728.289C488.106,727.767 487.949,728.698 486.832,730.638Z" style="fill:rgb(235,236,231);"/>
        <path d="M779.296,720.494C779.299,719.81 779.325,712.494 779.925,711.968C783.031,709.242 783.026,715.868 782.727,731.519C782.596,738.39 774.636,727.809 768.334,719.656C763.461,713.351 768.342,733.617 764.459,734.035C762.821,734.211 761.887,733.377 762.639,713.516C762.723,711.308 765.224,711.284 766.439,712.567C772.587,719.057 771.671,719.715 777.566,726.418C780.01,729.197 779.334,721.985 779.296,720.494Z" style="fill:rgb(235,236,232);"/>
        <path d="M813.511,721.097C813.778,721.098 823.62,720.456 823.796,722.457C824.127,726.221 810.751,721.469 810.71,726.504C810.642,734.825 815.2,730.324 823.462,730.988C825.837,731.179 826.339,734.02 822.492,734.062C808.978,734.21 807.431,733.91 807.235,732.564C807.163,732.074 807.165,713.876 807.221,713.457C807.478,711.543 808.215,711.254 822.5,711.505C825.753,711.562 825.731,714.665 822.506,714.668C814.506,714.675 810.152,711.435 810.717,719.464C810.854,721.417 811.638,720.757 813.511,721.097Z" style="fill:rgb(239,240,236);"/>
        <path d="M312.514,730.951C312.089,730.936 307.459,730.774 307.4,729.517C306.71,714.867 308.309,714.676 309.511,714.644C310.678,714.612 321.441,714.325 321.822,722.482C322.168,729.919 313.515,730.844 312.514,730.951Z" style="fill:rgb(36,37,35);"/>
        <path d="M378.894,721.558C378.902,722.805 378.972,734.832 391.556,730.654C395.179,729.452 394.463,724.862 392.458,724.732C388.162,724.454 387.34,725.314 387.097,723.611C386.758,721.244 397.272,719.869 397.423,724.503C397.503,726.945 399.403,733.981 387.5,734.252C369.096,734.67 372.645,704.754 393.459,712.589C397.669,714.173 395.321,716.821 393.615,716.148C392.547,715.727 382.13,709.529 378.894,721.558Z" style="fill:rgb(238,239,236);"/>
        <path d="M196.602,733.867C189.479,734.875 181.589,735.21 183.283,713.462C183.465,711.131 186.562,711.199 186.638,713.481C186.726,716.136 184.106,734.141 195.602,730.85C203.924,728.468 196.685,708.878 202.365,711.784C203.896,712.568 203.252,726.228 202.879,727.62C201.723,731.932 197.265,733.616 196.602,733.867Z" style="fill:rgb(240,240,238);"/>
        <path d="M901.064,455.499C900.906,452.048 900.915,450.891 900.919,450.49C900.972,443.797 911.823,447.347 912.619,448.394C915.293,451.912 913.852,452.383 910.921,455.734C910.03,456.753 913.572,460.73 913.681,461.458C914.525,467.1 907.408,456.684 907.401,456.681C904.025,455.034 903.72,456.749 903.629,460.505C903.623,460.748 903.537,464.316 901.426,462.588C900.274,461.645 900.925,461.347 901.064,455.499Z" style="fill:rgb(217,218,217);"/>
        <path d="M105.272,718.659C107.08,720.521 107.416,722.14 109.08,720.092C110.064,718.88 115.732,708.98 118.012,711.949C119.174,713.462 109.411,723.063 109.378,726.496C109.318,732.693 110.005,733.165 108.68,733.803C106.078,735.055 106.035,731.796 106.032,731.516C105.896,721.222 103.061,722.212 97.493,713.503C96.32,711.668 99.119,710.369 101.098,712.851C101.455,713.299 103.001,715.238 105.272,718.659Z" style="fill:rgb(236,237,232);"/>
        <path d="M454.182,722.503C454.143,720.512 454.201,718.519 454.163,716.528C454.102,713.342 443.602,715.594 447.078,712.175C448.438,710.836 464.364,711.63 464.418,711.664C468.719,714.325 459.97,714.623 459.511,714.639C455.109,714.788 459.898,733.107 456.407,734.052C453.2,734.919 454.189,724.184 454.182,722.503Z" style="fill:rgb(239,240,233);"/>
        <path d="M729.905,717.494C729.243,711.688 725.038,716.039 722.885,714.119C718.457,710.168 739.752,711.461 740.293,711.816C744.271,714.427 735.958,714.669 735.513,714.682C730.909,714.817 734.995,732.675 732.647,733.718C728.852,735.402 729.906,726.599 729.905,717.494Z" style="fill:rgb(238,239,234);"/>
        <path d="M534.5,730.939C541.941,730.949 542.228,730.141 543.581,731.421C543.582,731.423 545.188,733.92 541.526,733.974C532.315,734.109 527.509,734.891 527.477,731.501C527.381,721.35 526.727,708.246 530.544,712.464C531.289,713.288 530.892,713.47 530.945,726.501C530.959,729.877 531.125,730.43 534.5,730.939Z" style="fill:rgb(237,238,235);"/>
        <path d="M230.76,718.5C230.987,713.718 232.674,714.342 237.497,714.614C245.134,715.045 245.178,722.128 237.495,722.394C232.695,722.561 230.957,723.324 230.76,718.5Z" style="fill:rgb(40,41,40);"/>
        <path d="M694.46,722.244C692.995,722.288 686.14,723.536 685.942,720.468C685.506,713.739 688.088,714.267 694.472,714.753C697.137,714.956 702.59,719.527 694.46,722.244Z" style="fill:rgb(37,38,37);"/>
        <path d="M607.504,723.041C605.223,722.505 604.643,723.07 604.337,721.536C604.31,721.4 604.244,717.519 604.279,716.476C604.409,712.627 617.096,713.725 615.674,719.539C614.68,723.604 607.598,723.035 607.504,723.041Z" style="fill:rgb(34,34,33);"/>
        <path d="M860.469,722.307C859.352,722.329 852.368,723.504 852.229,720.538C852.043,716.586 850.49,714.667 854.504,714.634C855.3,714.628 862.847,714.078 864.153,716.698C866.023,720.446 860.978,722.136 860.469,722.307Z" style="fill:rgb(31,33,31);"/>
        <path d="M421.591,728.501C421.586,720.691 420.635,709.445 424.263,711.894C425.023,712.407 425.059,718.889 425.062,719.501C425.085,723.693 426.342,735.695 422.346,733.756C421.459,733.326 421.853,733.086 421.591,728.501Z" style="fill:rgb(226,228,222);"/>
        <path d="M348.442,724.5C348.443,719.311 347.977,712.197 349.558,711.667C351.857,710.897 351.872,714.2 351.873,714.492C351.946,730.055 352.465,735.16 349.355,733.79C348.457,733.394 348.443,725.247 348.442,724.5Z" style="fill:rgb(246,246,246);"/>
        <path d="M646.77,719.61C648.121,717.12 648.835,715.116 650.062,717.711C652.832,723.572 652.762,723.984 652.664,724.562C652.511,725.467 647.016,725.307 646.521,725.293C642.631,725.18 645.332,723.25 646.77,719.61Z" style="fill:rgb(41,42,40);"/>
        <path d="M493.497,725.322C490.949,725.217 489.356,725.854 490.202,723.424C492.747,716.114 493.766,716.489 494.292,716.82C494.316,716.835 497.82,723.487 497.611,724.542C497.396,725.629 496.97,725.122 493.497,725.322Z" style="fill:rgb(36,37,33);"/>
        <path d="M102.595,388.938C102.523,390.37 102.566,390.484 101.346,391.18C100.896,391.436 98.09,394.336 86.489,395.718C91.408,392.181 91.804,393.059 102.595,388.938Z" style="fill:rgb(35,40,35);"/>
        <path d="M907.512,453.913C904.235,453.697 902.997,453.789 903.612,450.534C904.268,447.065 915.5,450.938 909.514,453.538C909.364,453.603 909.366,453.566 907.512,453.913Z" style="fill:rgb(36,37,35);"/>
    </g>
</svg>
