<?xml version="1.0" encoding="UTF-8" standalone="no"?>
<!DOCTYPE svg PUBLIC "-//W3C//DTD SVG 1.1//EN" "http://www.w3.org/Graphics/SVG/1.1/DTD/svg11.dtd">
<svg width="100%" height="100%" viewBox="0 0 3200 3374" version="1.1" xmlns="http://www.w3.org/2000/svg" xmlns:xlink="http://www.w3.org/1999/xlink" xml:space="preserve" xmlns:serif="http://www.serif.com/" style="fill-rule:evenodd;clip-rule:evenodd;stroke-linejoin:round;stroke-miterlimit:2;">
    <g id="Artboard1" transform="matrix(1,0,0,1,678.666667,0)">
        <rect x="-678.667" y="0" width="3200" height="3373.333" style="fill:rgb(235,153,34);"/>
        <g transform="matrix(13.882638,0,0,13.882638,-14812.933519,-13177.347767)">
            <g transform="matrix(-2.666667,0,0,2.666667,1435.682667,-2127.536)">
                <rect x="90.605" y="1210.466" width="2.296" height="1.894" style="fill:white;"/>
            </g>
            <g transform="matrix(2.666667,0,0,2.666667,946.333333,-2144.773333)">
                <rect x="94.537" y="1210.466" width="2.296" height="8.358" style="fill:white;"/>
            </g>
            <g transform="matrix(2.666667,0,0,2.666667,1219.3944,1093.516533)">
                <path d="M0,-2.39C-1.502,-2.39 -2.021,-1.096 -2.021,0.278C-2.021,1.588 -1.422,2.961 0,2.961C1.521,2.961 1.973,1.634 1.973,0.26C1.973,-1.096 1.488,-2.39 0,-2.39M2.005,3.398L1.973,3.398C1.44,4.303 0.503,4.691 -0.564,4.691C-3.088,4.691 -4.316,2.525 -4.316,0.214C-4.316,-2.034 -3.072,-4.12 -0.614,-4.12C0.374,-4.12 1.342,-3.7 1.861,-2.874L1.893,-2.874L1.893,-7.081L4.188,-7.081L4.188,4.465L2.005,4.465L2.005,3.398Z" style="fill:white;fill-rule:nonzero;"/>
            </g>
            <g transform="matrix(2.666667,0,0,2.666667,1052.2696,1096.674933)">
                <path d="M0,-1.798C-0.209,-2.96 -0.71,-3.574 -1.825,-3.574C-3.281,-3.574 -3.702,-2.443 -3.733,-1.798L0,-1.798ZM-3.733,-0.341C-3.668,1.114 -2.958,1.776 -1.68,1.776C-0.758,1.776 -0.014,1.211 0.132,0.693L2.152,0.693C1.505,2.667 0.132,3.507 -1.761,3.507C-4.396,3.507 -6.029,1.695 -6.029,-0.891C-6.029,-3.398 -4.298,-5.305 -1.761,-5.305C1.086,-5.305 2.458,-2.911 2.296,-0.341L-3.733,-0.341Z" style="fill:white;fill-rule:nonzero;"/>
            </g>
            <g transform="matrix(2.666667,0,0,2.666667,1062.1992,1104.815467)">
                <path d="M0,-8.13L2.164,-8.13L2.164,-6.999L2.198,-6.999C2.796,-7.855 3.669,-8.358 4.752,-8.358C5.803,-8.358 6.742,-7.97 7.193,-6.967C7.68,-7.695 8.552,-8.358 9.716,-8.358C11.494,-8.358 12.771,-7.533 12.771,-5.365L12.771,0.228L10.477,0.228L10.477,-4.51C10.477,-5.625 10.38,-6.548 9.07,-6.548C7.775,-6.548 7.534,-5.479 7.534,-4.428L7.534,0.228L5.236,0.228L5.236,-4.461C5.236,-5.432 5.302,-6.548 3.846,-6.548C3.396,-6.548 2.294,-6.257 2.294,-4.624L2.294,0.228L0,0.228L0,-8.13Z" style="fill:white;fill-rule:nonzero;"/>
            </g>
            <g transform="matrix(2.666667,0,0,2.666667,1116.0976,1096.674933)">
                <path d="M0,-1.798C-0.209,-2.96 -0.709,-3.574 -1.826,-3.574C-3.281,-3.574 -3.7,-2.443 -3.735,-1.798L0,-1.798ZM-3.735,-0.341C-3.671,1.114 -2.959,1.776 -1.682,1.776C-0.761,1.776 -0.015,1.211 0.129,0.693L2.151,0.693C1.504,2.667 0.129,3.507 -1.762,3.507C-4.397,3.507 -6.029,1.695 -6.029,-0.891C-6.029,-3.398 -4.299,-5.305 -1.762,-5.305C1.084,-5.305 2.459,-2.911 2.296,-0.341L-3.735,-0.341Z" style="fill:white;fill-rule:nonzero;"/>
            </g>
            <g transform="matrix(2.666667,0,0,2.666667,1136.415467,1093.516533)">
                <path d="M0,-2.39C-1.505,-2.39 -2.023,-1.096 -2.023,0.278C-2.023,1.588 -1.423,2.961 0,2.961C1.52,2.961 1.97,1.634 1.97,0.26C1.97,-1.096 1.487,-2.39 0,-2.39M2.005,3.398L1.97,3.398C1.437,4.303 0.501,4.691 -0.567,4.691C-3.091,4.691 -4.319,2.525 -4.319,0.214C-4.319,-2.034 -3.072,-4.12 -0.614,-4.12C0.371,-4.12 1.342,-3.7 1.859,-2.874L1.892,-2.874L1.892,-7.081L4.187,-7.081L4.187,4.465L2.005,4.465L2.005,3.398Z" style="fill:white;fill-rule:nonzero;"/>
            </g>
            <g transform="matrix(2.666667,0,0,2.666667,946.333333,-2153.277333)">
                <path d="M77.264,1213.655L79.56,1213.655L79.56,1222.013L77.264,1222.013L77.264,1213.655ZM79.56,1212.361L77.264,1212.361L77.264,1210.466L79.56,1210.466L79.56,1212.361Z" style="fill:white;fill-rule:nonzero;"/>
            </g>
            <g transform="matrix(2.666667,0,0,2.666667,1168.071733,1090.377067)">
                <path d="M0,2.925C0.014,3.929 0.856,4.332 1.763,4.332C2.424,4.332 3.265,4.074 3.265,3.267C3.265,2.571 2.311,2.327 0.661,1.973C-0.664,1.682 -1.99,1.211 -1.99,-0.26C-1.99,-2.391 -0.147,-2.943 1.648,-2.943C3.476,-2.943 5.157,-2.329 5.335,-0.274L3.153,-0.274C3.086,-1.164 2.409,-1.408 1.583,-1.408C1.066,-1.408 0.306,-1.311 0.306,-0.631C0.306,0.193 1.599,0.308 2.909,0.614C4.251,0.921 5.561,1.405 5.561,2.958C5.561,5.157 3.653,5.868 1.744,5.868C-0.194,5.868 -2.086,5.143 -2.184,2.925L0,2.925Z" style="fill:white;fill-rule:nonzero;"/>
            </g>
            <g transform="matrix(2.666667,0,0,2.666667,1056.5168,1038.1264)">
                <path d="M0,13.646C0,13.646 7.555,7.267 16.858,4.407C20.637,3.245 29.484,1.455 38.156,4.247C48.88,7.696 53.218,15.584 53.218,15.584L55.514,15.584C55.514,15.584 50.048,4.264 36.535,0.403C31.514,-1.032 23.227,-1.938 15.238,0.366C6.069,3.009 -0.329,6.562 -7.454,13.646L0,13.646Z" style="fill:white;fill-rule:nonzero;"/>
            </g>
        </g>
    </g>
</svg>
