<svg width="1024" height="1024" viewBox="0 0 1024 1024" fill="none" xmlns="http://www.w3.org/2000/svg">
<rect width="1024" height="1024" fill="white"/>
<path d="M701.524 206.969C533.328 102.308 312.348 154.147 207.948 322.766C103.549 491.385 155.258 712.919 323.455 817.581C491.652 922.242 712.632 870.403 817.031 701.784C921.477 533.165 869.721 311.631 701.524 206.969ZM512.513 719.423C398.406 719.423 305.907 626.692 305.907 512.298C305.907 397.905 398.406 305.174 512.513 305.174C626.62 305.174 719.119 397.905 719.119 512.298C719.072 626.692 626.573 719.423 512.513 719.423Z" fill="url(#paint0_linear_2657_329)"/>
<defs>
<linearGradient id="paint0_linear_2657_329" x1="716.346" y1="183.099" x2="302.386" y2="848.286" gradientUnits="userSpaceOnUse">
<stop stop-color="#FFB600"/>
<stop offset="0.5273" stop-color="#FF1F00"/>
<stop offset="0.9995" stop-color="#BB1E2D"/>
</linearGradient>
</defs>
</svg>
