<?xml version="1.0" encoding="UTF-8" standalone="no"?>
<!DOCTYPE svg PUBLIC "-//W3C//DTD SVG 1.1//EN" "http://www.w3.org/Graphics/SVG/1.1/DTD/svg11.dtd">
<svg width="100%" height="100%" viewBox="0 0 1200 1200" version="1.1" xmlns="http://www.w3.org/2000/svg" xmlns:xlink="http://www.w3.org/1999/xlink" xml:space="preserve" xmlns:serif="http://www.serif.com/" style="fill-rule:evenodd;clip-rule:evenodd;stroke-linejoin:round;stroke-miterlimit:2;">
    <g id="Artboard1" transform="matrix(1,0,0,1,-3538.495833,0)">
        <rect x="3538.496" y="0" width="1200" height="1200" style="fill:none;"/>
        <g transform="matrix(1.331159,0,0,1.331159,3583.495266,553.836583)">
            <g transform="matrix(1,0,0,1,216.948,76.3666)">
                <path d="M0,-42.367C-6.569,-48.322 -14.468,-51.299 -23.694,-51.299C-32.878,-51.252 -40.734,-48.216 -47.261,-42.19C-53.788,-36.164 -57.051,-28.962 -57.051,-20.583C-57.051,-12.156 -53.788,-4.978 -47.261,0.953C-40.734,6.885 -32.878,9.85 -23.694,9.85C-14.468,9.804 -6.569,6.779 0,0.777C6.57,-5.225 9.854,-12.416 9.854,-20.795C9.854,-29.221 6.57,-36.411 0,-42.367M19.007,17.794C7.293,28.598 -6.792,33.999 -23.248,33.999C-39.702,33.999 -53.809,28.598 -65.566,17.794C-77.323,6.99 -83.201,-5.967 -83.201,-21.078C-83.201,-36.33 -77.323,-49.358 -65.566,-60.161C-53.809,-70.965 -39.702,-76.366 -23.248,-76.366C-6.792,-76.366 7.293,-70.965 19.007,-60.161C30.721,-49.358 36.579,-36.33 36.579,-21.078C36.579,-5.967 30.721,6.99 19.007,17.794" style="fill:rgb(239,61,61);fill-rule:nonzero;"/>
            </g>
            <g transform="matrix(1,0,0,1,279.8668,110.3662)">
                <path d="M0,-110.366L26.596,-110.366L26.596,-23.333L76.536,-23.555L76.536,0L0,0L0,-110.366Z" style="fill:rgb(239,61,61);fill-rule:nonzero;"/>
            </g>
            <g transform="matrix(1,0,0,1,449.1393,110.3552)">
                <path d="M0,-110.355L63.844,0L34.76,0L0.191,-58.514L-34.887,-0.073L-63.907,0L0,-110.355Z" style="fill:rgb(239,61,61);fill-rule:nonzero;"/>
            </g>
            <g transform="matrix(1,0,0,1,539.1328,110.2483)">
                <path d="M0,-110.1L95.541,-110.248L95.669,-86.243L59.443,-86.243L59.378,0.148L35.78,0.074L35.78,-86.687L-0.255,-86.687L0,-110.1Z" style="fill:rgb(239,61,61);fill-rule:nonzero;"/>
            </g>
            <g transform="matrix(1,0,0,1,0,0.03)">
                <rect x="674.346" y="-0.03" width="26.532" height="110.396" style="fill:rgb(239,61,61);"/>
            </g>
            <g transform="matrix(1,0,0,1,56.4728,54.3043)">
                <path d="M0,1.868L-29.884,1.868L-29.813,-30.175L0.483,-30.175C1.228,-30.18 1.943,-30.161 2.647,-30.132L1.741,-30.132C14.335,-28.971 20.632,-23.819 20.632,-14.676C20.632,-3.55 13.754,1.965 0,1.868M48.246,-20.125C48.248,-20.159 48.252,-20.191 48.254,-20.226C48.243,-20.535 48.218,-20.833 48.201,-21.138C48.198,-21.247 48.196,-21.335 48.199,-21.377C48.199,-21.377 48.19,-21.37 48.188,-21.368C46.874,-43.222 30.639,-54.206 -0.538,-54.304L-56.473,-54.304L-56.473,56.172L-30.004,56.172L-29.936,25.451L-1.032,25.451C31.033,25.353 47.475,14.251 48.292,-7.855C48.288,-7.917 48.28,-7.976 48.276,-8.037C48.332,-8.946 48.378,-9.969 48.442,-11.081C48.588,-13.635 48.352,-17.976 48.246,-20.125" style="fill:rgb(239,61,61);fill-rule:nonzero;"/>
            </g>
            <g transform="matrix(1,0,0,1,837.1115,24.0211)">
                <path d="M0,62.721L0.128,86.742L-42.477,86.742C-58.209,86.693 -71.71,81.256 -82.976,70.431C-93.906,59.904 -99.368,47.226 -99.368,32.398L-99.368,29.729C-99.368,15.298 -93.906,2.792 -82.976,-7.785C-72.475,-17.818 -58.931,-23.23 -42.349,-24.021L-42.286,-24.021L-42.286,-23.947L0,-23.947L0.128,0.593L-42.157,0.593C-52.023,0.791 -59.453,4.189 -64.449,10.787C-69.446,17.385 -71.943,24.466 -71.943,32.028C-71.943,39.59 -69.456,46.707 -64.48,53.38C-59.506,60.052 -52.215,63.166 -42.604,62.721L0,62.721Z" style="fill:rgb(239,61,61);fill-rule:nonzero;"/>
            </g>
        </g>
    </g>
</svg>
