<?xml version="1.0" encoding="UTF-8" standalone="no"?>
<!DOCTYPE svg PUBLIC "-//W3C//DTD SVG 1.1//EN" "http://www.w3.org/Graphics/SVG/1.1/DTD/svg11.dtd">
<svg width="100%" height="100%" viewBox="0 0 5000 5000" version="1.1" xmlns="http://www.w3.org/2000/svg" xmlns:xlink="http://www.w3.org/1999/xlink" xml:space="preserve" xmlns:serif="http://www.serif.com/" style="fill-rule:evenodd;clip-rule:evenodd;stroke-linejoin:round;stroke-miterlimit:2;">
    <g id="Artboard1" transform="matrix(1,0,0,1,-1487.5,0)">
        <rect x="1487.5" y="0" width="5000" height="5000" style="fill:rgb(254,176,34);"/>
        <g transform="matrix(24.309881,0,0,24.309881,-40083.736956,-53900.404028)">
            <g transform="matrix(4.166667,0,0,4.166667,1487.5,2250.066607)">
                <path d="M69.822,27.812C69.823,27.64 69.958,27.497 70.129,27.491C74.359,27.332 77.751,23.914 77.868,19.677L77.873,19.677L77.873,14.984C77.873,14.805 78.018,14.66 78.197,14.66L83.073,14.66C83.251,14.66 83.395,14.805 83.395,14.982L83.395,19.519C83.395,20.918 83.182,22.278 82.784,23.557C82.386,24.835 81.804,26.032 81.072,27.115C79.607,29.281 77.538,30.998 75.094,32.032C73.561,32.68 71.879,33.056 70.129,33.097C69.949,33.101 69.802,32.955 69.802,32.775L69.802,32.451L69.822,27.812Z" style="fill:white;fill-rule:nonzero;"/>
            </g>
            <g transform="matrix(4.166667,0,0,4.166667,1487.5,2250.066607)">
                <path d="M84.691,10.354C86.95,8.098 86.953,4.442 84.697,2.188C82.442,-0.065 78.782,-0.062 76.524,2.194C74.265,4.451 74.262,8.107 76.518,10.36C78.773,12.614 82.433,12.611 84.691,10.354Z" style="fill:white;fill-rule:nonzero;"/>
            </g>
        </g>
    </g>
</svg>
