<?xml version="1.0" encoding="UTF-8" standalone="no"?>
<!DOCTYPE svg PUBLIC "-//W3C//DTD SVG 1.1//EN" "http://www.w3.org/Graphics/SVG/1.1/DTD/svg11.dtd">
<svg width="100%" height="100%" viewBox="0 0 5000 5000" version="1.1" xmlns="http://www.w3.org/2000/svg" xmlns:xlink="http://www.w3.org/1999/xlink" xml:space="preserve" xmlns:serif="http://www.serif.com/" style="fill-rule:evenodd;clip-rule:evenodd;stroke-linejoin:round;stroke-miterlimit:2;">
    <g id="Artboard1" transform="matrix(1,0,0,1,-1487.5,0)">
        <rect x="1487.5" y="0" width="5000" height="5000" style="fill:rgb(227,30,82);"/>
        <g transform="matrix(84.666618,0,0,84.666618,2343.953387,806.666618)">
            <path d="M17.029,21.637L12.483,2.921C12.358,2.409 12.128,1.928 11.808,1.509C11.488,1.09 11.086,0.741 10.625,0.485C10.165,0.228 9.656,0.069 9.131,0.018C8.606,-0.033 8.077,0.025 7.575,0.187L2.656,1.786C2.154,1.949 1.691,2.212 1.296,2.562C0.901,2.911 0.582,3.338 0.359,3.816C0.136,4.294 0.014,4.813 0.001,5.34C-0.012,5.867 0.084,6.391 0.282,6.88L7.614,24.695C7.98,25.591 8.672,26.315 9.549,26.723C10.427,27.131 11.427,27.192 12.348,26.894L14.492,26.197C15.413,25.898 16.186,25.261 16.657,24.416C17.127,23.57 17.26,22.577 17.029,21.637ZM17.712,39.745C16.724,40.065 15.663,40.084 14.664,39.801C13.664,39.518 12.771,38.946 12.097,38.155C11.423,37.365 10.998,36.393 10.876,35.362C10.753,34.33 10.94,33.285 11.41,32.36C11.881,31.434 12.616,30.668 13.522,30.16C14.428,29.651 15.464,29.422 16.499,29.502C17.535,29.582 18.524,29.967 19.341,30.608C20.158,31.249 20.767,32.118 21.09,33.105C21.306,33.763 21.39,34.457 21.337,35.147C21.284,35.837 21.095,36.51 20.781,37.127C20.467,37.744 20.034,38.293 19.508,38.742C18.981,39.191 18.371,39.532 17.712,39.745ZM28.633,34.94C35.378,32.748 40.822,24.971 38.114,16.632C35.403,8.299 26.427,5.203 19.682,7.395C18.925,7.64 18.289,8.163 17.902,8.859C17.515,9.554 17.406,10.37 17.596,11.143L18.277,13.946C18.381,14.367 18.57,14.762 18.833,15.106C19.096,15.45 19.428,15.737 19.806,15.947C20.185,16.158 20.603,16.289 21.034,16.331C21.466,16.373 21.901,16.326 22.313,16.192L22.59,16.104C23.258,15.867 23.966,15.766 24.673,15.807C25.38,15.848 26.072,16.03 26.707,16.343C27.342,16.656 27.909,17.093 28.372,17.628C28.836,18.164 29.188,18.787 29.407,19.46C29.626,20.134 29.707,20.845 29.647,21.55C29.587,22.256 29.386,22.942 29.055,23.569C28.725,24.196 28.273,24.75 27.725,25.199C27.177,25.648 26.545,25.983 25.866,26.183L25.589,26.271C25.178,26.406 24.798,26.624 24.475,26.912C24.151,27.2 23.89,27.551 23.709,27.944C23.527,28.337 23.428,28.763 23.418,29.196C23.409,29.629 23.488,30.059 23.652,30.46L24.74,33.133C25.04,33.87 25.609,34.466 26.331,34.801C27.053,35.136 27.875,35.186 28.633,34.94Z" style="fill:white;"/>
        </g>
    </g>
</svg>
