<?xml version="1.0" encoding="UTF-8" standalone="no"?>
<!DOCTYPE svg PUBLIC "-//W3C//DTD SVG 1.1//EN" "http://www.w3.org/Graphics/SVG/1.1/DTD/svg11.dtd">
<svg width="100%" height="100%" viewBox="0 0 5000 5000" version="1.1" xmlns="http://www.w3.org/2000/svg" xmlns:xlink="http://www.w3.org/1999/xlink" xml:space="preserve" xmlns:serif="http://www.serif.com/" style="fill-rule:evenodd;clip-rule:evenodd;stroke-linejoin:round;stroke-miterlimit:2;">
    <g id="Artboard1" transform="matrix(1,0,0,1,-1487.5,0)">
        <rect x="1487.5" y="0" width="5000" height="5000" style="fill:rgb(62,118,205);"/>
        <clipPath id="_clip1">
            <rect x="1487.5" y="0" width="5000" height="5000"/>
        </clipPath>
        <g clip-path="url(#_clip1)">
            <g transform="matrix(1,0,0,1,1487.5,0)">
                <path d="M3188.254,5005L975,3845L2113,910L2722,894L5119,2294L5208,5117L3270,5071L3188.254,5005Z" style="fill:rgb(54,101,171);"/>
            </g>
            <g id="Gemini_Generated_Image_vbmculvbmculvbmc.png" transform="matrix(4.892578,0,0,4.892578,1482.5,-5)">
                <path d="M194.609,786.091C193.751,784.389 193.909,784.357 194.628,782.548C210.241,743.238 292.253,532.353 300.718,510.587C334.67,423.568 368.622,336.549 402.575,249.53C427.609,185.283 426.79,183.881 429.518,183.735C437.745,183.291 437.72,183.591 532.502,183.686C555.309,183.709 556.488,182.888 558.176,186.623C560.268,191.25 593.998,275.903 597.094,283.673C608.471,312.226 705.228,555.057 739.76,640.401C744.419,651.916 795.904,779.157 797.68,784.467C798.664,787.406 796.59,786.196 793.501,786.183C717.76,785.847 665.861,787.06 664.957,785.171C663.247,781.597 623.46,677.703 619.877,668.348C616.104,658.493 613.415,649.905 611.475,649.619C608.531,649.185 454.178,649.473 440.5,649.499C373.62,649.624 373.499,649.394 372.83,649.894C371.786,650.675 324.044,784.91 322.631,785.675C320.067,787.065 204.85,786.171 194.609,786.091Z" style="fill:rgb(233,233,232);"/>
                <path d="M567.501,547.527C555.026,547.553 412.445,547.86 411.562,547.365C410.088,546.539 411.155,545.919 423.352,511.447C428.494,496.917 428.711,497.009 489.208,330.398C490.366,327.21 489.971,326.093 491.339,326.738C491.465,326.797 560.443,512.375 566.444,528.52C566.947,529.873 572.145,543.856 572.657,545.46C573.785,548.991 571.205,547.35 567.501,547.527Z" style="fill:rgb(56,103,172);"/>
                <path d="M564.599,188.191C561.165,186.253 558.633,185.895 561.542,183.256C562.874,182.048 564.374,185.57 564.599,188.191Z" style="fill:rgb(68,120,202);"/>
            </g>
        </g>
    </g>
</svg>
