<svg width="1024" height="1024" viewBox="0 0 1024 1024" fill="none" xmlns="http://www.w3.org/2000/svg">
<g clip-path="url(#clip0_2657_337)">
<rect width="1024" height="1024" fill="#191920"/>
<path d="M511.846 856C464.475 856 420.348 846.998 379.465 828.994C338.907 810.99 303.379 786.194 272.879 754.608C242.704 722.706 219.18 685.908 202.308 644.214C185.436 602.521 177 558.142 177 511.079C177 460.541 186.247 414.425 204.742 372.731C223.236 331.037 248.382 295.029 280.179 264.706C311.977 234.068 347.992 210.536 388.226 194.111C428.784 177.37 470.964 169 514.766 169C562.787 169 609.834 179.897 655.908 201.692C701.982 223.486 743.189 258.073 779.529 305.452L659.802 367.993C639.036 344.619 615.837 327.247 590.204 315.876C564.896 304.505 539.101 298.819 512.82 298.819C486.538 298.819 461.23 304.031 436.895 314.454C412.885 324.878 391.47 339.723 372.651 358.991C353.833 378.259 338.907 401.001 327.876 427.217C316.844 453.434 311.328 482.335 311.328 513.921C311.328 543.297 316.519 570.777 326.902 596.361C337.609 621.946 352.21 644.372 370.705 663.64C389.199 682.908 410.614 698.069 434.948 709.124C459.608 719.863 485.889 725.233 513.793 725.233C530.99 725.233 547.862 722.864 564.409 718.126C581.282 713.072 597.342 705.808 612.592 696.332C627.842 686.856 641.794 675.011 654.448 660.797C667.427 646.583 678.783 630.159 688.517 611.523H582.904V497.812H846.693C848.639 546.771 841.339 592.887 824.791 636.16C808.244 679.433 784.558 717.652 753.734 750.818C722.91 783.668 686.894 809.41 645.688 828.046C604.481 846.682 559.867 856 511.846 856Z" fill="white"/>
<g style="mix-blend-mode:color-dodge" opacity="0.8" filter="url(#filter0_f_2657_337)">
<path d="M-110.293 384.708C-110.698 302.855 -104.023 88.5023 -74.9483 3.99714C-36.6971 -107.181 40.2977 -166.287 104.171 -214.115C173.158 -265.773 287.253 -223.504 321.036 -191.301C363.988 -150.358 298.625 16.6288 215.167 215.012C161.543 342.477 57.4336 460.244 -26.2918 578.166C-86.3301 662.726 -109.769 730.165 -120.737 788.551C-134.344 860.986 -119.227 925.094 -101.967 958.812C-89.7413 982.697 -63.7507 984.052 -38.8848 983.999C11.7826 983.889 57.396 896.18 144.302 738.014C201.715 633.523 272.472 468.891 324.644 337.098C413.221 113.339 442.21 -6.58416 461.977 -35.8655C482.501 -66.2676 523.164 -77.3212 564.879 -82.5134C596.85 -86.4927 628.587 -69.9158 658.804 -44.1695C704.284 -5.41809 709.303 91.3677 710.838 157.783C714.787 328.553 571.273 536.862 565.262 600.815C563.998 614.266 570.248 624.874 577.429 632.519C584.611 640.164 595.24 644.51 609.176 645.909C623.113 647.307 640.035 645.627 738.864 497.733C837.693 349.838 1017.92 55.7789 1205 -249" stroke="url(#paint0_radial_2657_337)" stroke-opacity="0.5" stroke-width="224" stroke-linecap="round"/>
</g>
<g style="mix-blend-mode:overlay" opacity="0.6" filter="url(#filter1_f_2657_337)">
<circle cx="125.5" cy="210.5" r="602.5" fill="url(#paint1_linear_2657_337)"/>
</g>
</g>
<defs>
<filter id="filter0_f_2657_337" x="-451.998" y="-575.016" width="1983.01" height="1885.02" filterUnits="userSpaceOnUse" color-interpolation-filters="sRGB">
<feFlood flood-opacity="0" result="BackgroundImageFix"/>
<feBlend mode="normal" in="SourceGraphic" in2="BackgroundImageFix" result="shape"/>
<feGaussianBlur stdDeviation="107" result="effect1_foregroundBlur_2657_337"/>
</filter>
<filter id="filter1_f_2657_337" x="-541" y="-456" width="1333" height="1333" filterUnits="userSpaceOnUse" color-interpolation-filters="sRGB">
<feFlood flood-opacity="0" result="BackgroundImageFix"/>
<feBlend mode="normal" in="SourceGraphic" in2="BackgroundImageFix" result="shape"/>
<feGaussianBlur stdDeviation="32" result="effect1_foregroundBlur_2657_337"/>
</filter>
<radialGradient id="paint0_radial_2657_337" cx="0" cy="0" r="1" gradientTransform="matrix(-841.586 661.332 -713.895 -1381.69 898.713 171.847)" gradientUnits="userSpaceOnUse">
<stop stop-color="#FACC15"/>
<stop offset="0.652674" stop-color="#60A5FA"/>
<stop offset="0.927885" stop-color="#60A5FA"/>
</radialGradient>
<linearGradient id="paint1_linear_2657_337" x1="-477" y1="-392" x2="740.057" y2="-265.185" gradientUnits="userSpaceOnUse">
<stop stop-color="#741F86"/>
<stop offset="0.465" stop-color="#965085"/>
<stop offset="1" stop-color="#A82C56"/>
</linearGradient>
<clipPath id="clip0_2657_337">
<rect width="1024" height="1024" fill="white"/>
</clipPath>
</defs>
</svg>
